<svg style="display:none;" xmlns="http://www.w3.org/2000/svg">
	<symbol id="up_arrow" viewBox="0 0 512 512">
	<g>
		<polygon style="fill:#0093C4;" points="494.884,418.108 256.001,99.597 17.116,418.108 256.001,418.108 "/>
<polygon style="fill:#00B4D7;" points="256.001,418.108 256.001,99.597 494.884,418.108 "/>
<path d="M512,426.666H0L256.001,85.334L512,426.666z M34.232,409.55h443.535l-221.767-295.69L34.232,409.55z"/>
<polygon style="fill:#FFFFFF;" points="204.811,392.54 73.558,392.54 203.744,225.161 217.254,235.669 108.555,375.424 
	204.811,375.424 "/>
	</g>
	</symbol>
	<symbol id="down_arrow" viewBox="0 0 512 512">
		<g>
			<polygon style="fill:#0093C4;" points="494.884,93.892 256.001,412.403 17.116,93.892 256.001,93.892 "/>
<polygon style="fill:#00B4D7;" points="256.001,93.892 256.001,412.403 494.884,93.892 "/>
<path d="M256.001,426.666L0,85.334h512L256.001,426.666z M34.232,102.45l221.768,295.69l221.767-295.69H34.232z"/>
<polygon style="fill:#FFFFFF;" points="203.744,286.839 73.558,119.46 204.811,119.46 204.811,136.576 108.555,136.576 
	217.254,276.331 "/>
		</g>
	</symbol>

	<symbol id="report_error" viewBox="0 -960 960 960">
	<g>
	<path d="M480-280q17 0 28.5-11.5T520-320q0-17-11.5-28.5T480-360q-17 0-28.5 11.5T440-320q0 17 11.5 28.5T480-280Zm-40-160h80v-240h-80v240ZM330-120 120-330v-300l210-210h300l210 210v300L630-120H330Zm34-80h232l164-164v-232L596-760H364L200-596v232l164 164Zm116-280Z"/>
	</g>
	</symbol>

	<symbol id="manufacture_error" viewBox="0 -960 960 960">
	<g>
	<path d="m234-480-12-60q-12-5-22.5-10.5T178-564l-58 18-40-68 46-40q-2-13-2-26t2-26l-46-40 40-68 58 18q11-8 21.5-13.5T222-820l12-60h80l12 60q12 5 22.5 10.5T370-796l58-18 40 68-46 40q2 13 2 26t-2 26l46 40-40 68-58-18q-11 8-21.5 13.5T326-540l-12 60h-80Zm40-120q33 0 56.5-23.5T354-680q0-33-23.5-56.5T274-760q-33 0-56.5 23.5T194-680q0 33 23.5 56.5T274-600ZM592-40l-18-84q-17-6-31.5-14.5T514-158l-80 26-56-96 64-56q-2-18-2-36t2-36l-64-56 56-96 80 26q14-11 28.5-19.5T574-516l18-84h112l18 84q17 6 31.5 14.5T782-482l80-26 56 96-64 56q2 18 2 36t-2 36l64 56-56 96-80-26q-14 11-28.5 19.5T722-124l-18 84H592Zm56-160q50 0 85-35t35-85q0-50-35-85t-85-35q-50 0-85 35t-35 85q0 50 35 85t85 35Z"/>
	</g>
	</symbol>

	<symbol id="alertPerson" viewBox="0 -960 960 960">
	<g>
	<path d="M800-520q-17 0-28.5-11.5T760-560q0-17 11.5-28.5T800-600q17 0 28.5 11.5T840-560q0 17-11.5 28.5T800-520Zm-40-120v-200h80v200h-80ZM360-480q-66 0-113-47t-47-113q0-66 47-113t113-47q66 0 113 47t47 113q0 66-47 113t-113 47ZM40-160v-112q0-34 17.5-62.5T104-378q62-31 126-46.5T360-440q66 0 130 15.5T616-378q29 15 46.5 43.5T680-272v112H40Zm80-80h480v-32q0-11-5.5-20T580-306q-54-27-109-40.5T360-360q-56 0-111 13.5T140-306q-9 5-14.5 14t-5.5 20v32Zm240-320q33 0 56.5-23.5T440-640q0-33-23.5-56.5T360-720q-33 0-56.5 23.5T280-640q0 33 23.5 56.5T360-560Zm0-80Zm0 400Z"/>
	</g>
	</symbol>

	<symbol id="basket" viewBox="0 0 26 26">
	<g>
	
    <path fill="#666666" d="M24.25,2.5898438h-2.8359375c-0.0267944,0-0.0495605,0.0125122-0.0756226,0.0152588  c-0.0543823,0.0055542-0.1052246,0.0145874-0.156189,0.0315552c-0.0426636,0.0140991-0.0811768,0.0314941-0.1200562,0.0526123  c-0.0447388,0.024353-0.085083,0.0507813-0.1240845,0.0836792c-0.0358887,0.0301514-0.0663452,0.0622559-0.0960083,0.0984497  c-0.0305786,0.0372925-0.0567017,0.0752563-0.079895,0.1184692c-0.0239868,0.0443726-0.0408325,0.0899048-0.055542,0.1390991  c-0.0079956,0.0266724-0.0252686,0.0480957-0.0303955,0.0761108l-0.4295044,2.3473511L1.8930664,6.625  C1.8227539,6.6201172,1.7607422,6.6303711,1.6821289,6.6376953C1.2744141,6.6748047,0.9716797,7.0322266,1.0019531,7.4404297  c0.0024414,0.0307617,0.0063477,0.0605469,0.012207,0.0898438l1.2788086,6.9746094  c0.2924805,1.081543,1.1933594,2.1733398,2.5483398,2.1733398h13.3695679l-0.2862549,1.5644531H6.6748047  c-1.4243164,0-2.5834961,1.1591797-2.5834961,2.5834961c0,1.4248047,1.1591797,2.5839844,2.5834961,2.5839844  s2.5834961-1.1591797,2.5834961-2.5839844c0-0.3881226-0.0922241-0.7528687-0.2462769-1.0834961h6.9080811  c-0.1540527,0.3306274-0.2462769,0.6953735-0.2462769,1.0834961c0,1.4248047,1.1591797,2.5839844,2.5834961,2.5839844  s2.5834961-1.1591797,2.5834961-2.5839844c0-1.0127563-0.5914307-1.8825073-1.4421387-2.3057861l2.640564-14.430542H24.25  c0.4140625,0,0.75-0.3359375,0.75-0.75S24.6640625,2.5898438,24.25,2.5898438z M19.0220947,12.244812l-3.1782227,0.0499268  l0.1730957-1.8419189l3.3514404-0.1004639L19.0220947,12.244812z M3.1442871,10.8387451l3.1759644-0.0952148l0.2077637,1.6974487  l-3.081543,0.0484009L3.1442871,10.8387451z M7.3235474,10.7134399l3.4909058-0.1046143v1.7648315l-3.281311,0.0515747  L7.3235474,10.7134399z M10.8144531,9.6079102L7.2014771,9.7162476l-0.230835-1.885376l3.843811-0.2247314V9.6079102z   M11.8144531,7.5476685l3.4902344-0.2041016l-0.2006836,2.1357422l-3.2895508,0.0986328V7.5476685z M10.8144531,13.3739014  v1.8043213H7.8701782l-0.2148438-1.7546997L10.8144531,13.3739014z M11.8144531,13.3582153l2.9293823-0.0459595l-0.175354,1.8659668  h-2.7540283V13.3582153z M11.8144531,12.3579712v-1.7791138l3.1952515-0.0958252l-0.1717529,1.8274536L11.8144531,12.3579712z   M19.5525513,9.3459473l-3.4412842,0.1031494l0.2033691-2.1645508l3.6542358-0.2136841L19.5525513,9.3459473z M5.9707642,7.8893433  l0.227356,1.8569336l-3.236145,0.0970459C2.8256226,9.102478,2.717041,8.5267334,2.6245117,8.0849609L5.9707642,7.8893433z   M3.7548828,14.1743164l-0.1258545-0.687561l3.0212402-0.0474243l0.2128906,1.7388916H4.8413086  C4.1987305,15.1782227,3.8408203,14.4819336,3.7548828,14.1743164z M15.572937,15.1782227l0.1768188-1.8817749l3.0888062-0.0485229  l-0.3532104,1.9302979H15.572937z M7.7583008,20.8261719c0,0.5976563-0.4858398,1.0839844-1.0834961,1.0839844  s-1.0834961-0.4863281-1.0834961-1.0839844s0.4858398-1.0834961,1.0834961-1.0834961S7.7583008,20.2285156,7.7583008,20.8261719z   M18.2573242,21.9101563c-0.5976563,0-1.0834961-0.4863281-1.0834961-1.0839844s0.4858398-1.0834961,1.0834961-1.0834961  s1.0834961,0.4858398,1.0834961,1.0834961S18.8549805,21.9101563,18.2573242,21.9101563z"/>
               
	</g>
	</symbol >
	
	<symbol id="close" viewBox="0 -960 960 960">
	<g>
	<path fill="red" d="m256-200-56-56 224-224-224-224 56-56 224 224 224-224 56 56-224 224 224 224-56 56-224-224-224 224Z"/>
	</g>
	</symbol>

	<symbol id="done" viewBox="0 -960 960 960">
	<g>
	<path fill="green" d="M382-240 154-468l57-57 171 171 367-367 57 57-424 424Z"/>
	</g>
	</symbol>

	<symbol id="delete" viewBox="0 -960 960 960">
	<g>
	<path d="M280-120q-33 0-56.5-23.5T200-200v-520h-40v-80h200v-40h240v40h200v80h-40v520q0 33-23.5 56.5T680-120H280Zm400-600H280v520h400v-520ZM360-280h80v-360h-80v360Zm160 0h80v-360h-80v360ZM280-720v520-520Z"/>
	</g>
	</symbol>
</svg>